<?xml version="1.0" encoding="UTF-8"?>
<!DOCTYPE svg PUBLIC "-//W3C//DTD SVG 1.1//EN" "http://www.w3.org/Graphics/SVG/1.1/DTD/svg11.dtd">
<svg width="160mm" height="90mm" viewBox="0 0 16000 9000" version="1.1" xmlns="http://www.w3.org/2000/svg" stroke-width="28.222" stroke-linejoin="round" xml:space="preserve">
 <path fill="rgb(255,255,255)" stroke="none" d="M 8000,8999 L 0,8999 0,0 15999,0 15999,8999 8000,8999 Z"/>
 <path fill="rgb(0,69,134)" stroke="none" d="M 11263,1671 C 11047,1422 10804,1198 10537,1004 10170,738 9764,531 9333,391 8902,251 8451,180 7999,180 L 7999,4499 7999,4499 7999,4499 7999,4499 11263,1671 Z"/>
 <path fill="rgb(255,66,14)" stroke="none" d="M 11070,7534 C 11223,7379 11365,7213 11493,7037 11759,6670 11966,6264 12106,5833 12246,5402 12318,4951 12318,4499 12318,4046 12246,3595 12106,3164 11966,2733 11759,2327 11493,1960 11420,1861 11344,1764 11263,1671 L 7999,4499 7999,4499 7999,4499 7999,4499 7999,4499 7999,4499 7999,4499 11070,7534 Z"/>
 <path fill="rgb(255,211,32)" stroke="none" d="M 7815,8814 C 7877,8816 7938,8818 7999,8818 8451,8818 8902,8746 9333,8606 9764,8466 10170,8259 10537,7993 10727,7855 10905,7701 11070,7534 L 7999,4499 7999,4499 7999,4499 7999,4499 7999,4499 7815,8814 Z"/>
 <path fill="rgb(87,157,28)" stroke="none" d="M 4387,2129 C 4177,2451 4010,2799 3891,3164 3751,3595 3680,4046 3680,4499 3680,4951 3751,5402 3891,5833 4031,6264 4238,6670 4504,7037 4771,7404 5093,7726 5460,7993 5827,8259 6233,8466 6664,8606 7037,8727 7424,8797 7815,8814 L 7999,4499 7999,4499 7999,4499 7999,4499 7999,4499 7999,4499 7999,4499 7999,4499 4387,2129 Z"/>
 <path fill="rgb(126,0,33)" stroke="none" d="M 6501,447 C 6130,585 5780,772 5460,1004 5093,1271 4771,1593 4504,1960 4464,2016 4425,2072 4387,2129 L 7999,4499 7999,4499 7999,4499 7999,4499 6501,447 Z"/>
 <path fill="rgb(131,202,255)" stroke="none" d="M 7513,207 C 7168,246 6828,327 6501,447 L 7999,4499 7999,4499 7513,207 Z"/>
 <path fill="rgb(49,64,4)" stroke="none" d="M 7861,182 C 7745,185 7629,194 7513,207 L 7999,4499 7999,4499 7861,182 Z"/>
 <path fill="rgb(174,207,0)" stroke="none" d="M 7999,180 C 7953,180 7907,180 7861,182 L 7999,4499 7999,4499 7999,180 Z"/>
</svg>