<?xml version="1.0" encoding="UTF-8"?>
<!DOCTYPE svg PUBLIC "-//W3C//DTD SVG 1.1//EN" "http://www.w3.org/Graphics/SVG/1.1/DTD/svg11.dtd">
<svg width="160mm" height="90mm" viewBox="0 0 16000 9000" version="1.1" xmlns="http://www.w3.org/2000/svg" stroke-width="28.222" stroke-linejoin="round" xml:space="preserve">
 <path fill="rgb(255,255,255)" stroke="none" d="M 8000,8999 L 0,8999 0,0 15999,0 15999,8999 8000,8999 Z"/>
 <path fill="rgb(0,69,134)" stroke="none" d="M 9118,8514 C 9455,8381 9774,8206 10067,7993 10434,7726 10756,7404 11023,7037 11289,6670 11496,6264 11636,5833 11776,5402 11848,4951 11848,4499 11848,4046 11776,3595 11636,3164 11496,2733 11289,2327 11023,1960 10756,1593 10434,1271 10067,1004 9700,738 9294,531 8863,391 8432,251 7982,180 7529,180 L 7529,4499 7529,4499 7529,4499 7529,4499 7529,4499 7529,4499 7529,4499 7529,4499 7529,4499 7529,4499 9118,8514 Z"/>
 <path fill="rgb(255,66,14)" stroke="none" d="M 4201,7251 C 4432,7531 4697,7780 4990,7993 5357,8259 5763,8466 6194,8606 6625,8746 7076,8818 7529,8818 7982,8818 8432,8746 8863,8606 8949,8578 9034,8547 9118,8514 L 7529,4499 7529,4499 7529,4499 7529,4499 7529,4499 7529,4499 4201,7251 Z"/>
 <path fill="rgb(255,211,32)" stroke="none" d="M 3244,3958 C 3221,4137 3210,4318 3210,4499 3210,4951 3281,5402 3421,5833 3561,6264 3768,6670 4034,7037 4088,7110 4143,7182 4201,7251 L 7529,4499 7529,4499 7529,4499 7529,4499 7529,4499 3244,3958 Z"/>
 <path fill="rgb(87,157,28)" stroke="none" d="M 4572,1350 C 4374,1536 4194,1740 4034,1960 3768,2327 3561,2733 3421,3164 3337,3423 3278,3688 3244,3958 L 7529,4499 7529,4499 7529,4499 7529,4499 4572,1350 Z"/>
 <path fill="rgb(126,0,33)" stroke="none" d="M 6988,214 C 6718,248 6453,307 6194,391 5763,531 5357,738 4990,1004 4844,1111 4704,1226 4572,1350 L 7529,4499 7529,4499 7529,4499 7529,4499 6988,214 Z"/>
 <path fill="rgb(131,202,255)" stroke="none" d="M 7529,180 C 7348,180 7167,191 6988,214 L 7529,4499 7529,4499 7529,180 Z"/>
 <path fill="rgb(0,69,134)" stroke="none" d="M 15281,3360 L 15175,3360 15175,3149 15386,3149 15386,3360 15281,3360 Z"/>
 <path fill="rgb(255,66,14)" stroke="none" d="M 15281,3858 L 15175,3858 15175,3647 15386,3647 15386,3858 15281,3858 Z"/>
 <path fill="rgb(255,211,32)" stroke="none" d="M 15281,4356 L 15175,4356 15175,4145 15386,4145 15386,4356 15281,4356 Z"/>
 <path fill="rgb(87,157,28)" stroke="none" d="M 15281,4853 L 15175,4853 15175,4642 15386,4642 15386,4853 15281,4853 Z"/>
 <path fill="rgb(126,0,33)" stroke="none" d="M 15281,5351 L 15175,5351 15175,5140 15386,5140 15386,5351 15281,5351 Z"/>
 <path fill="rgb(131,202,255)" stroke="none" d="M 15281,5849 L 15175,5849 15175,5638 15386,5638 15386,5849 15281,5849 Z"/>
 <text class="TextShape"><tspan class="TextParagraph" font-family="Arial, sans-serif" font-size="353px" font-weight="400"><tspan class="TextPosition" x="15486" y="3374"><tspan fill="rgb(0,0,0)" stroke="none">1</tspan></tspan></tspan></text>
 <text class="TextShape"><tspan class="TextParagraph" font-family="Arial, sans-serif" font-size="353px" font-weight="400"><tspan class="TextPosition" x="15486" y="3872"><tspan fill="rgb(0,0,0)" stroke="none">2</tspan></tspan></tspan></text>
 <text class="TextShape"><tspan class="TextParagraph" font-family="Arial, sans-serif" font-size="353px" font-weight="400"><tspan class="TextPosition" x="15486" y="4370"><tspan fill="rgb(0,0,0)" stroke="none">3</tspan></tspan></tspan></text>
 <text class="TextShape"><tspan class="TextParagraph" font-family="Arial, sans-serif" font-size="353px" font-weight="400"><tspan class="TextPosition" x="15486" y="4867"><tspan fill="rgb(0,0,0)" stroke="none">4</tspan></tspan></tspan></text>
 <text class="TextShape"><tspan class="TextParagraph" font-family="Arial, sans-serif" font-size="353px" font-weight="400"><tspan class="TextPosition" x="15486" y="5365"><tspan fill="rgb(0,0,0)" stroke="none">5</tspan></tspan></tspan></text>
 <text class="TextShape"><tspan class="TextParagraph" font-family="Arial, sans-serif" font-size="353px" font-weight="400"><tspan class="TextPosition" x="15486" y="5863"><tspan fill="rgb(0,0,0)" stroke="none">6</tspan></tspan></tspan></text>
</svg>